<svg width="33" height="32" viewBox="0 0 33 32" fill="none" xmlns="http://www.w3.org/2000/svg">
<g clip-path="url(#clip0_3643_3491)">
<path d="M28.1595 11.2668C26.7595 5.10683 21.3861 2.3335 16.6661 2.3335C16.6661 2.3335 16.6661 2.3335 16.6528 2.3335C11.9461 2.3335 6.55948 5.0935 5.15948 11.2535C3.59948 18.1335 7.81281 23.9602 11.6261 27.6268C13.0395 28.9868 14.8528 29.6668 16.6661 29.6668C18.4795 29.6668 20.2928 28.9868 21.6928 27.6268C25.5061 23.9602 29.7195 18.1468 28.1595 11.2668ZM16.6661 17.9468C14.3461 17.9468 12.4661 16.0668 12.4661 13.7468C12.4661 11.4268 14.3461 9.54683 16.6661 9.54683C18.9861 9.54683 20.8661 11.4268 20.8661 13.7468C20.8661 16.0668 18.9861 17.9468 16.6661 17.9468Z" fill="#292D32"/>
</g>
<defs>
<clipPath id="clip0_3643_3491">
<rect width="32" height="32" fill="white" transform="translate(0.666016)"/>
</clipPath>
</defs>
</svg>
