<svg width="33" height="32" viewBox="0 0 33 32" fill="none" xmlns="http://www.w3.org/2000/svg">
<path d="M29.6267 24.4398C29.6267 24.9198 29.52 25.4132 29.2933 25.8932C29.0667 26.3732 28.7733 26.8265 28.3867 27.2532C27.7333 27.9732 27.0133 28.4932 26.2 28.8265C25.4 29.1598 24.5333 29.3332 23.6 29.3332C22.24 29.3332 20.7867 29.0132 19.2533 28.3598C17.72 27.7065 16.1867 26.8265 14.6667 25.7198C13.1333 24.5998 11.68 23.3598 10.2933 21.9865C8.92 20.5998 7.68 19.1465 6.57333 17.6265C5.48 16.1065 4.6 14.5865 3.96 13.0798C3.32 11.5598 3 10.1065 3 8.71984C3 7.81317 3.16 6.9465 3.48 6.1465C3.8 5.33317 4.30667 4.5865 5.01333 3.91984C5.86667 3.07984 6.8 2.6665 7.78667 2.6665C8.16 2.6665 8.53333 2.7465 8.86667 2.9065C9.21333 3.0665 9.52 3.3065 9.76 3.65317L12.8533 8.01317C13.0933 8.3465 13.2667 8.65317 13.3867 8.9465C13.5067 9.2265 13.5733 9.5065 13.5733 9.75984C13.5733 10.0798 13.48 10.3998 13.2933 10.7065C13.12 11.0132 12.8667 11.3332 12.5467 11.6532L11.5333 12.7065C11.3867 12.8532 11.32 13.0265 11.32 13.2398C11.32 13.3465 11.3333 13.4398 11.36 13.5465C11.4 13.6532 11.44 13.7332 11.4667 13.8132C11.7067 14.2532 12.12 14.8265 12.7067 15.5198C13.3067 16.2132 13.9467 16.9198 14.64 17.6265C15.36 18.3332 16.0533 18.9865 16.76 19.5865C17.4533 20.1732 18.0267 20.5732 18.48 20.8132C18.5467 20.8398 18.6267 20.8798 18.72 20.9198C18.8267 20.9598 18.9333 20.9732 19.0533 20.9732C19.28 20.9732 19.4533 20.8932 19.6 20.7465L20.6133 19.7465C20.9467 19.4132 21.2667 19.1598 21.5733 18.9998C21.88 18.8132 22.1867 18.7198 22.52 18.7198C22.7733 18.7198 23.04 18.7732 23.3333 18.8932C23.6267 19.0132 23.9333 19.1865 24.2667 19.4132L28.68 22.5465C29.0267 22.7865 29.2667 23.0665 29.4133 23.3998C29.5467 23.7332 29.6267 24.0665 29.6267 24.4398Z" fill="#292D32"/>
</svg>
