<svg width="32" height="32" viewBox="0 0 32 32" fill="none" xmlns="http://www.w3.org/2000/svg">
<path d="M22.666 4H9.33268C5.33268 4 2.66602 6 2.66602 10.6667V20C2.66602 24.6667 5.33268 26.6667 9.33268 26.6667H14.0927C14.8793 26.6667 15.5194 25.9733 15.4127 25.1867C15.2794 24.24 15.306 23.2533 15.506 22.24C16.2127 18.7733 19.066 16.0133 22.5593 15.44C24.306 15.16 25.9727 15.4 27.4394 16.04C28.3327 16.4267 29.3327 15.8133 29.3327 14.84V10.6667C29.3327 6 26.666 4 22.666 4ZM23.2927 11.4533L19.1194 14.7867C18.2393 15.4933 17.1193 15.84 15.9993 15.84C14.8793 15.84 13.746 15.4933 12.8793 14.7867L8.70602 11.4533C8.27935 11.1067 8.21268 10.48 8.54602 10.04C8.89268 9.61333 9.51935 9.53333 9.94602 9.88L14.1193 13.2133C15.1327 14.0267 16.8527 14.0267 17.866 13.2133L22.0394 9.88C22.466 9.53333 23.106 9.6 23.4394 10.04C23.786 10.48 23.7193 11.1067 23.2927 11.4533Z" fill="#101828"/>
<path d="M24.0007 17.3335C20.3207 17.3335 17.334 20.3068 17.334 24.0002C17.334 27.6802 20.3207 30.6668 24.0007 30.6668C27.694 30.6668 30.6673 27.6802 30.6673 24.0002C30.6673 20.3068 27.694 17.3335 24.0007 17.3335ZM26.734 23.4002L26.2407 23.8802L23.334 26.8002C23.2007 26.9202 22.9473 27.0535 22.7607 27.0802L21.454 27.2668C20.9873 27.3335 20.654 27.0002 20.7207 26.5335L20.9073 25.2268C20.934 25.0402 21.054 24.7868 21.1873 24.6535L24.094 21.7602L24.574 21.2668C24.894 20.9468 25.254 20.7335 25.6273 20.7335C25.9473 20.7335 26.3073 20.8802 26.7073 21.2668C27.6007 22.1335 27.3206 22.8135 26.734 23.4002Z" fill="#292D32"/>
</svg>
