<svg width="93" height="44" viewBox="0 0 93 44" fill="none" xmlns="http://www.w3.org/2000/svg">
<path fill-rule="evenodd" clip-rule="evenodd" d="M42.0812 18.3202V25.7062C42.0812 35.7993 33.8542 44.0001 23.761 44.0001H18.2939C8.20072 44.0001 0 35.7993 0 25.7062V18.3202C0 8.20077 8.20072 6.10352e-05 18.2939 6.10352e-05H23.761C33.8542 6.10352e-05 42.0812 8.20077 42.0812 18.3202ZM31.2521 19.2928C31.2521 14.8244 27.6248 11.1972 23.1302 11.1972H18.9247C14.4564 11.1972 10.8291 14.8244 10.8291 19.2928V24.7073C10.8291 29.1757 14.4564 32.8029 18.9247 32.8029H23.1302C27.6248 32.8029 31.2521 29.1757 31.2521 24.7073V19.2928Z" fill="#FF6159"/>
<path d="M87.0791 6.10352e-05H84.8712C81.9799 6.10352e-05 79.6406 2.33937 79.6406 5.23064V8.01679C79.6406 10.9081 81.9799 13.2474 84.8712 13.2474H87.0791C89.9704 13.2474 92.3097 10.9081 92.3097 8.01679V5.23064C92.3097 2.33937 89.9704 6.10352e-05 87.0791 6.10352e-05Z" fill="#FF6159"/>
<path d="M74.5689 29.4123L61.0587 32.5927C61.0587 32.5927 61.0499 32.5927 61.0324 32.5927C61.0061 32.6189 60.9798 32.6189 60.9536 32.5664C60.901 32.5401 60.9273 32.5138 60.9273 32.4875L73.3861 3.10162C73.6226 2.54965 73.5701 1.91882 73.2284 1.41942C72.9129 0.920018 72.361 0.63089 71.7564 0.63089H46.7074C45.8138 0.63089 45.0515 1.31428 44.9464 2.20795L43.711 12.932C43.6585 13.5102 43.8687 14.0885 44.3156 14.4827C44.7624 14.8507 45.367 15.0084 45.9452 14.8507L57.8257 11.644L45.2355 41.5556C44.999 42.1076 45.0778 42.7121 45.3932 43.2115C45.7349 43.7109 46.2869 44.0001 46.8652 44.0001H73.6752C74.5689 44.0001 75.3048 43.343 75.4362 42.4493L76.7505 31.331C76.803 30.7528 76.5928 30.2008 76.1722 29.8065C75.7254 29.4123 75.1471 29.2808 74.5689 29.4123Z" fill="#FF6159"/>
<path d="M90.4444 15.5341H81.8494C80.9558 15.5341 80.2461 16.2175 80.2461 17.0323V42.3178C80.2461 43.2378 81.0346 44 82.0071 44H90.2604C91.2329 44 92.0478 43.2378 92.0478 42.3178V17.0323C92.0478 16.2175 91.3381 15.5341 90.4444 15.5341Z" fill="#FF6159"/>
</svg>
