<svg width="45" height="44" viewBox="0 0 45 44" fill="none" xmlns="http://www.w3.org/2000/svg">
<g clip-path="url(#clip0_5085_8049)">
<path d="M22.5 44C34.6503 44 44.5 34.1503 44.5 22C44.5 9.84974 34.6503 0 22.5 0C10.3497 0 0.5 9.84974 0.5 22C0.5 34.1503 10.3497 44 22.5 44Z" fill="url(#paint0_linear_5085_8049)"/>
<path d="M23 34.5C25.4723 34.5 27.889 33.7669 29.9446 32.3934C32.0002 31.0199 33.6024 29.0676 34.5485 26.7835C35.4946 24.4995 35.7421 21.9861 35.2598 19.5614C34.7775 17.1366 33.587 14.9093 31.8388 13.1612C30.0907 11.413 27.8634 10.2225 25.4386 9.74019C23.0139 9.25787 20.5005 9.50542 18.2165 10.4515C15.9324 11.3976 13.9801 12.9998 12.6066 15.0554C11.2331 17.111 10.5 19.5277 10.5 22C10.5038 25.314 11.822 28.4913 14.1654 30.8346C16.5087 33.178 19.686 34.4962 23 34.5ZM29.25 18.875H31.75C31.8525 18.875 31.9535 18.9002 32.044 18.9484C32.1344 18.9966 32.2117 19.0663 32.2689 19.1514C32.3261 19.2365 32.3614 19.3344 32.3719 19.4364C32.3823 19.5383 32.3675 19.6413 32.3287 19.7363L30.2837 24.7363C30.2541 24.8141 30.2092 24.8853 30.1516 24.9455C30.094 25.0058 30.025 25.0539 29.9486 25.0871C29.8721 25.1203 29.7898 25.1378 29.7065 25.1387C29.6232 25.1396 29.5405 25.1239 29.4634 25.0924C29.3862 25.0609 29.3162 25.0142 29.2573 24.9553C29.1984 24.8963 29.152 24.8261 29.1206 24.7489C29.0893 24.6717 29.0737 24.589 29.0747 24.5057C29.0758 24.4224 29.0935 24.3401 29.1269 24.2638L30.8194 20.125H29.25C29.0842 20.125 28.9253 20.0592 28.8081 19.9419C28.6908 19.8247 28.625 19.6658 28.625 19.5C28.625 19.3342 28.6908 19.1753 28.8081 19.0581C28.9253 18.9409 29.0842 18.875 29.25 18.875ZM23.6875 24.2206L26.1875 19.2206C26.2616 19.0723 26.3916 18.9594 26.5489 18.9069C26.7062 18.8544 26.8779 18.8665 27.0262 18.9406C27.1746 19.0147 27.2874 19.1447 27.34 19.302C27.3925 19.4593 27.3803 19.631 27.3062 19.7794L24.8062 24.7794C24.7696 24.8528 24.7188 24.9184 24.6568 24.9722C24.5948 25.026 24.5227 25.0671 24.4449 25.0931C24.367 25.1191 24.2847 25.1295 24.2028 25.1237C24.1209 25.1179 24.041 25.0961 23.9675 25.0594C23.894 25.0227 23.8285 24.9719 23.7747 24.9099C23.7209 24.8479 23.6798 24.7759 23.6538 24.698C23.6278 24.6201 23.6174 24.5379 23.6232 24.456C23.6289 24.3741 23.6508 24.2941 23.6875 24.2206ZM18.625 19.5C18.625 19.3342 18.6908 19.1753 18.8081 19.0581C18.9253 18.9409 19.0842 18.875 19.25 18.875C19.4158 18.875 19.5747 18.9409 19.6919 19.0581C19.8092 19.1753 19.875 19.3342 19.875 19.5V21.375H21.125V19.5C21.125 19.3342 21.1908 19.1753 21.3081 19.0581C21.4253 18.9409 21.5842 18.875 21.75 18.875C21.9158 18.875 22.0747 18.9409 22.1919 19.0581C22.3092 19.1753 22.375 19.3342 22.375 19.5V24.5C22.375 24.6658 22.3092 24.8247 22.1919 24.9419C22.0747 25.0592 21.9158 25.125 21.75 25.125C21.5842 25.125 21.4253 25.0592 21.3081 24.9419C21.1908 24.8247 21.125 24.6658 21.125 24.5V22.625H19.25C19.0842 22.625 18.9253 22.5592 18.8081 22.4419C18.6908 22.3247 18.625 22.1658 18.625 22V19.5ZM13.625 24.5V22C13.625 21.8342 13.6908 21.6753 13.8081 21.5581C13.9253 21.4409 14.0842 21.375 14.25 21.375H16.125V20.125H14.25C14.0842 20.125 13.9253 20.0592 13.8081 19.9419C13.6908 19.8247 13.625 19.6658 13.625 19.5C13.625 19.3342 13.6908 19.1753 13.8081 19.0581C13.9253 18.9409 14.0842 18.875 14.25 18.875H16.75C16.9158 18.875 17.0747 18.9409 17.1919 19.0581C17.3092 19.1753 17.375 19.3342 17.375 19.5V22C17.375 22.1658 17.3092 22.3247 17.1919 22.4419C17.0747 22.5592 16.9158 22.625 16.75 22.625H14.875V23.875H16.75C16.9158 23.875 17.0747 23.9409 17.1919 24.0581C17.3092 24.1753 17.375 24.3342 17.375 24.5C17.375 24.6658 17.3092 24.8247 17.1919 24.9419C17.0747 25.0592 16.9158 25.125 16.75 25.125H14.25C14.0842 25.125 13.9253 25.0592 13.8081 24.9419C13.6908 24.8247 13.625 24.6658 13.625 24.5Z" fill="white"/>
<path d="M40.3194 20.9331C40.2022 20.816 40.0432 20.7501 39.8775 20.7501C39.7118 20.7501 39.5528 20.816 39.4356 20.9331L39.2294 21.1394C39.0291 17.3055 37.4778 13.6663 34.8506 10.8669C32.2233 8.06756 28.6898 6.28876 24.8763 5.84583C21.0628 5.40291 17.2156 6.32447 14.0167 8.44716C10.8178 10.5699 8.47373 13.7566 7.4 17.4425C7.35359 17.6016 7.37229 17.7727 7.45199 17.918C7.5317 18.0634 7.66587 18.1711 7.825 18.2175C7.98413 18.2639 8.15518 18.2452 8.30052 18.1655C8.44586 18.0858 8.55359 17.9516 8.6 17.7925C9.58786 14.3995 11.742 11.4642 14.6825 9.50415C17.6231 7.54413 21.1612 6.68525 24.6732 7.07896C28.1851 7.47267 31.4452 9.09367 33.8788 11.6562C36.3123 14.2187 37.763 17.5581 37.975 21.0856L37.8225 20.9331C37.7046 20.8193 37.5468 20.7563 37.3829 20.7577C37.219 20.7591 37.0622 20.8249 36.9464 20.9408C36.8305 21.0566 36.7648 21.2134 36.7633 21.3773C36.7619 21.5411 36.8249 21.699 36.9388 21.8169L38.1888 23.0669C38.306 23.1841 38.4649 23.2499 38.6306 23.2499C38.7964 23.2499 38.9553 23.1841 39.0725 23.0669L40.3225 21.8169C40.4393 21.6993 40.5045 21.5401 40.5039 21.3744C40.5033 21.2086 40.437 21.0499 40.3194 20.9331Z" fill="white"/>
<path d="M38.1757 25.7825C38.0969 25.7595 38.0143 25.7523 37.9327 25.7612C37.8512 25.7701 37.7721 25.795 37.7002 25.8345C37.6282 25.8739 37.5647 25.9272 37.5133 25.9912C37.4619 26.0552 37.4237 26.1287 37.4007 26.2075C36.4112 29.5984 34.2567 32.5313 31.3168 34.4896C28.3769 36.4478 24.8403 37.3057 21.3299 36.9121C17.8196 36.5186 14.5607 34.8988 12.1275 32.3381C9.6943 29.7775 8.24282 26.4402 8.0288 22.9144L8.1813 23.0669C8.23896 23.1266 8.30792 23.1742 8.38418 23.2069C8.46043 23.2397 8.54244 23.2569 8.62543 23.2576C8.70842 23.2584 8.79072 23.2426 8.86753 23.2111C8.94434 23.1797 9.01412 23.1333 9.0728 23.0746C9.13148 23.0159 9.17789 22.9461 9.20932 22.8693C9.24074 22.7925 9.25656 22.7102 9.25584 22.6272C9.25511 22.5442 9.23787 22.4622 9.20512 22.386C9.17236 22.3097 9.12475 22.2408 9.06505 22.1831L7.81505 20.9331C7.69785 20.8159 7.53891 20.7501 7.37318 20.7501C7.20745 20.7501 7.04851 20.8159 6.9313 20.9331L5.6813 22.1831C5.56746 22.301 5.50446 22.4589 5.50588 22.6227C5.50731 22.7866 5.57304 22.9434 5.68892 23.0593C5.8048 23.1751 5.96156 23.2409 6.12543 23.2423C6.2893 23.2437 6.44718 23.1807 6.56505 23.0669L6.7713 22.8606C6.97163 26.6945 8.5229 30.3337 11.1501 33.1331C13.7774 35.9324 17.3109 37.7112 21.1244 38.1542C24.9379 38.5971 28.785 37.6755 31.984 35.5528C35.1829 33.4301 37.527 30.2434 38.6007 26.5575C38.6237 26.4787 38.6309 26.3961 38.622 26.3146C38.6131 26.233 38.5882 26.1539 38.5487 26.082C38.5092 26.01 38.456 25.9465 38.392 25.8951C38.328 25.8437 38.2545 25.8055 38.1757 25.7825Z" fill="white"/>
</g>
<defs>
<linearGradient id="paint0_linear_5085_8049" x1="9.5" y1="4" x2="37.5" y2="38.5" gradientUnits="userSpaceOnUse">
<stop stop-color="#6C7FEB"/>
<stop offset="1" stop-color="#7569E4"/>
</linearGradient>
<clipPath id="clip0_5085_8049">
<rect width="44" height="44" fill="white" transform="translate(0.5)"/>
</clipPath>
</defs>
</svg>
