<svg width="24" height="24" viewBox="0 0 24 24" fill="none" xmlns="http://www.w3.org/2000/svg">
<g clip-path="url(#clip0_5139_8111)">
<path d="M19.3185 23.25H4.68225C2.514 23.25 0.75 21.486 0.75 19.3177V10.6823C0.75 8.514 2.514 6.75 4.68225 6.75H19.3185C21.4867 6.75 23.25 8.514 23.25 10.6823V19.3185C23.25 21.4867 21.486 23.25 19.3185 23.25ZM4.68225 8.25C3.34125 8.25 2.25 9.34125 2.25 10.6823V19.3185C2.25 20.6595 3.34125 21.7507 4.68225 21.7507H19.3185C20.6595 21.7507 21.75 20.6595 21.75 19.3185V10.6823C21.75 9.34125 20.6595 8.25 19.3185 8.25H4.68225Z" fill="black"/>
<path d="M18.6606 8.2502H5.33984L8.63459 2.69945C9.34634 1.49945 10.6048 0.783203 11.9998 0.783203C13.3948 0.783203 14.6533 1.5002 15.3651 2.69945L18.6606 8.2502ZM7.97384 6.7502H16.0251L14.0743 3.4652C13.6356 2.72495 12.8601 2.2832 11.9991 2.2832C11.1381 2.2832 10.3626 2.72495 9.92309 3.4652L7.97309 6.7502H7.97384Z" fill="black"/>
<path d="M19.3177 7.5H4.68225C2.925 7.5 1.5 8.92425 1.5 10.6823V19.3185C1.5 21.0757 2.925 22.5007 4.68225 22.5007H19.3177C21.075 22.5007 22.5 21.0757 22.5 19.3185V10.6823C22.5 8.925 21.075 7.5 19.3177 7.5ZM4.5 20.2582C4.086 20.2582 3.75 19.9222 3.75 19.5082C3.75 19.0942 4.086 18.7582 4.5 18.7582C4.914 18.7582 5.25 19.0942 5.25 19.5082C5.25 19.9222 4.914 20.2582 4.5 20.2582ZM4.5 11.1038C4.086 11.1038 3.75 10.7678 3.75 10.3538C3.75 9.93975 4.086 9.60375 4.5 9.60375C4.914 9.60375 5.25 9.93975 5.25 10.3538C5.25 10.7678 4.914 11.1038 4.5 11.1038ZM11.4803 13.518C11.4803 14.274 11.166 14.997 10.6125 15.5123L7.93425 18.0082H10.6567C11.0707 18.0082 11.4067 18.3442 11.4067 18.7582C11.4067 19.1722 11.0707 19.5082 10.6567 19.5082H7.43175C6.89325 19.5082 6.417 19.1842 6.21975 18.6832C6.0225 18.1822 6.14925 17.6205 6.54375 17.2537L9.59025 14.4142C9.83775 14.1832 9.98025 13.8563 9.98025 13.518V13.3035C9.98025 12.693 9.56475 12.1253 8.9625 12.0255C8.196 11.8988 7.53 12.4898 7.53 13.2338V13.6268C7.53 14.0408 7.194 14.3768 6.78 14.3768C6.366 14.3768 6.03 14.0408 6.03 13.6268V13.3102C6.03 12.0097 6.909 10.827 8.18325 10.566C9.93525 10.2083 11.4803 11.5432 11.4803 13.233V13.518ZM17.4795 18.7365C17.4795 19.1505 17.1435 19.4865 16.7295 19.4865C16.3155 19.4865 15.9795 19.1505 15.9795 18.7365V16.329H13.7977C13.2787 16.329 12.7867 16.0785 12.483 15.6578C12.1785 15.2378 12.093 14.6925 12.2543 14.1998L13.2203 11.244C13.3485 10.8502 13.7723 10.6358 14.166 10.764C14.5598 10.893 14.7743 11.316 14.646 11.7098L13.6807 14.6655C13.6672 14.706 13.6733 14.7435 13.698 14.7772C13.722 14.811 13.7558 14.8282 13.7985 14.8282H15.9802V12.0075C15.9802 11.5935 16.3162 11.2575 16.7302 11.2575C17.1442 11.2575 17.4802 11.5935 17.4802 12.0075V18.7358L17.4795 18.7365ZM19.4993 20.2582C19.0853 20.2582 18.7493 19.9222 18.7493 19.5082C18.7493 19.0942 19.0853 18.7582 19.4993 18.7582C19.9132 18.7582 20.2493 19.0942 20.2493 19.5082C20.2493 19.9222 19.9132 20.2582 19.4993 20.2582ZM19.4993 11.1038C19.0853 11.1038 18.7493 10.7678 18.7493 10.3538C18.7493 9.93975 19.0853 9.60375 19.4993 9.60375C19.9132 9.60375 20.2493 9.93975 20.2493 10.3538C20.2493 10.7678 19.9132 11.1038 19.4993 11.1038Z" fill="black"/>
</g>
<defs>
<clipPath id="clip0_5139_8111">
<rect width="24" height="24" fill="white"/>
</clipPath>
</defs>
</svg>
